<svg width="32" height="33" viewBox="0 0 32 33" fill="none" xmlns="http://www.w3.org/2000/svg">
<g clip-path="url(#clip0_24_33)">
<path fill-rule="evenodd" clip-rule="evenodd" d="M7.00008 10.1667V11.904C6.69786 11.9244 6.41253 11.9529 6.14408 11.9893C4.94408 12.1493 3.93341 12.496 3.13075 13.2973C2.32808 14.1 1.98408 15.1107 1.82275 16.3107C1.66675 17.4667 1.66675 18.9373 1.66675 20.76V20.9067C1.66675 22.7293 1.66675 24.2 1.82275 25.356C1.98275 26.556 2.32941 27.5667 3.13075 28.3693C3.93341 29.172 4.94408 29.516 6.14408 29.6787C7.30008 29.8333 8.77075 29.8333 10.5934 29.8333H21.4067C23.2294 29.8333 24.7001 29.8333 25.8561 29.6787C27.0561 29.516 28.0667 29.172 28.8694 28.3693C29.6721 27.5667 30.0161 26.556 30.1787 25.356C30.3334 24.2 30.3334 22.7293 30.3334 20.9067V20.76C30.3334 18.9373 30.3334 17.4667 30.1787 16.3107C30.0161 15.1107 29.6721 14.1 28.8694 13.2973C28.0667 12.4947 27.0561 12.1507 25.8561 11.9893C25.5717 11.9517 25.2863 11.9232 25.0001 11.904V10.1667C25.0001 7.77971 24.0519 5.49052 22.364 3.8027C20.6762 2.11487 18.387 1.16666 16.0001 1.16666C13.6131 1.16666 11.3239 2.11487 9.63612 3.8027C7.94829 5.49052 7.00008 7.77971 7.00008 10.1667ZM16.0001 3.16666C14.1436 3.16666 12.3631 3.90415 11.0503 5.21691C9.73758 6.52966 9.00008 8.31014 9.00008 10.1667V11.8373C9.49786 11.8338 10.029 11.8324 10.5934 11.8333H21.4067C21.9712 11.8333 22.5023 11.8347 23.0001 11.8373V10.1667C23.0001 6.29999 19.8667 3.16666 16.0001 3.16666ZM6.41075 13.9707C5.43208 14.1027 4.91475 14.344 4.54541 14.712C4.17608 15.0813 3.93608 15.5987 3.80408 16.5787C3.66941 17.5853 3.66675 18.92 3.66675 20.8333C3.66675 22.7467 3.66941 24.0813 3.80408 25.0893C3.93608 26.068 4.17741 26.5853 4.54541 26.9547C4.91475 27.324 5.43208 27.564 6.41208 27.696C7.41741 27.8307 8.75341 27.8333 10.6667 27.8333H21.3334C23.2467 27.8333 24.5814 27.8307 25.5894 27.696C26.5681 27.564 27.0854 27.3227 27.4547 26.9547C27.8241 26.5853 28.0641 26.068 28.1961 25.088C28.3307 24.0813 28.3334 22.7467 28.3334 20.8333C28.3334 18.92 28.3307 17.584 28.1961 16.5773C28.0641 15.5987 27.8227 15.0813 27.4547 14.712C27.0854 14.3427 26.5681 14.1027 25.5881 13.9707C24.5814 13.836 23.2467 13.8333 21.3334 13.8333H10.6667C8.75341 13.8333 7.41741 13.836 6.41075 13.9707Z" fill="black"/>
</g>
<defs>
<clipPath id="clip0_24_33">
<rect width="32" height="32" fill="white" transform="translate(0 0.5)"/>
</clipPath>
</defs>
</svg>
