<svg width="33" height="32" viewBox="0 0 33 32" fill="none" xmlns="http://www.w3.org/2000/svg">
<g clip-path="url(#clip0_113_487)">
<path d="M7.87805 12.0261C11.7976 13.2414 12.7199 1.33192 20.5591 0.116672C27.8726 -1.01594 32.1265 6.37522 29.3205 10.8109C28.0109 12.8792 23.7616 11.2119 21.4813 12.0261C18.9405 12.9327 18.5048 16.2965 20.3285 18.3454C23.787 22.2342 25.4032 16.2503 28.3983 16.401C33.2401 16.6441 38.0774 31.0813 15.9478 31.9563C-2.49733 32.6854 5.70383 24.0912 10.1837 26.6092C13.6422 28.5536 18.0229 21.019 10.4143 20.0468C7.8573 19.7211 5.46635 22.1978 2.80564 21.262C0.730564 20.5329 0.5 17.6163 0.5 16.6441C0.5 14.4566 1.16172 9.94319 7.87805 12.0261Z" fill="#E48717"/>
</g>
<defs>
<clipPath id="clip0_113_487">
<rect width="32" height="32" fill="white" transform="translate(0.5)"/>
</clipPath>
</defs>
</svg>
