<svg width="24" height="25" viewBox="0 0 24 25" fill="none" xmlns="http://www.w3.org/2000/svg">
<path d="M19.4851 20.654L13.2231 14.392C12.7231 14.818 12.1481 15.1477 11.4981 15.381C10.8481 15.6143 10.1948 15.731 9.53811 15.731C7.93677 15.731 6.58144 15.1767 5.47211 14.068C4.36277 12.9593 3.80811 11.6043 3.80811 10.003C3.80811 8.40167 4.36211 7.046 5.47011 5.936C6.57811 4.826 7.93277 4.27033 9.53411 4.269C11.1354 4.26767 12.4914 4.82233 13.6021 5.933C14.7128 7.04367 15.2681 8.39933 15.2681 10C15.2681 10.6947 15.1451 11.367 14.8991 12.017C14.6531 12.667 14.3298 13.223 13.9291 13.685L20.1911 19.946L19.4851 20.654ZM9.5391 14.73C10.8658 14.73 11.9858 14.2733 12.8991 13.36C13.8124 12.4467 14.2691 11.3263 14.2691 9.999C14.2691 8.67167 13.8124 7.55167 12.8991 6.639C11.9858 5.72633 10.8658 5.26967 9.5391 5.269C8.21244 5.26833 7.09211 5.725 6.17811 6.639C5.26411 7.553 4.80744 8.673 4.80811 9.999C4.80877 11.325 5.26544 12.445 6.17811 13.359C7.09077 14.273 8.21077 14.7297 9.53811 14.729" fill="black"/>
<path d="M9.5391 14.73C10.8658 14.73 11.9858 14.2733 12.8991 13.36C13.8124 12.4467 14.2691 11.3263 14.2691 9.999C14.2691 8.67167 13.8124 7.55167 12.8991 6.639C11.9858 5.72633 10.8658 5.26967 9.5391 5.269C8.21244 5.26833 7.09211 5.725 6.17811 6.639C5.26411 7.553 4.80744 8.673 4.80811 9.999C4.80877 11.325 5.26544 12.445 6.17811 13.359C7.09077 14.273 8.21077 14.7297 9.53811 14.729M19.4851 20.654L13.2231 14.392C12.7231 14.818 12.1481 15.1477 11.4981 15.381C10.8481 15.6143 10.1948 15.731 9.53811 15.731C7.93677 15.731 6.58144 15.1767 5.47211 14.068C4.36277 12.9593 3.80811 11.6043 3.80811 10.003C3.80811 8.40167 4.36211 7.046 5.47011 5.936C6.57811 4.826 7.93277 4.27033 9.53411 4.269C11.1354 4.26767 12.4914 4.82233 13.6021 5.933C14.7128 7.04367 15.2681 8.39933 15.2681 10C15.2681 10.6947 15.1451 11.367 14.8991 12.017C14.6531 12.667 14.3298 13.223 13.9291 13.685L20.1911 19.946L19.4851 20.654Z" stroke="black" stroke-width="0.75"/>
</svg>
