<svg width="32" height="32" viewBox="0 0 32 32" fill="none" xmlns="http://www.w3.org/2000/svg">
<g clip-path="url(#clip0_24_208)">
<path d="M8.00008 13.3333V10.6666C8.00008 10.2124 8.03697 9.76797 8.11075 9.3333M24.0001 13.3333V10.6666C24.0002 9.04162 23.5054 7.45511 22.5816 6.11823C21.6578 4.78134 20.3488 3.75749 18.8287 3.18291C17.3087 2.60834 15.6497 2.51029 14.0726 2.90181C12.4954 3.29334 11.0749 4.15588 10.0001 5.37464M14.6667 29.3333H10.6667C6.89608 29.3333 5.00941 29.3333 3.83875 28.1613C2.66675 26.9906 2.66675 25.104 2.66675 21.3333C2.66675 17.5626 2.66675 15.676 3.83875 14.5053C5.00941 13.3333 6.89608 13.3333 10.6667 13.3333H21.3334C25.1041 13.3333 26.9907 13.3333 28.1614 14.5053C29.3334 15.676 29.3334 17.5626 29.3334 21.3333C29.3334 25.104 29.3334 26.9906 28.1614 28.1613C26.9907 29.3333 25.1041 29.3333 21.3334 29.3333H20.0001" stroke="black" stroke-width="2" stroke-linecap="round"/>
</g>
<defs>
<clipPath id="clip0_24_208">
<rect width="32" height="32" fill="white"/>
</clipPath>
</defs>
</svg>
